<svg width="32" height="32" viewBox="0 0 32 32" fill="none" xmlns="http://www.w3.org/2000/svg">
<circle cx="16" cy="16" r="16" fill="#25D366"/>
<path d="M23.5 8.5C22.1 7.1 20.3 6.3 18.4 6.3C14.4 6.3 11.2 9.5 11.2 13.5C11.2 14.8 11.6 16.1 12.3 17.2L11.1 20.9L15 19.7C16 20.3 17.2 20.6 18.4 20.6C22.4 20.6 25.6 17.4 25.6 13.4C25.6 11.5 24.8 9.8 23.5 8.5ZM18.4 19.2C17.4 19.2 16.4 18.9 15.6 18.4L15.4 18.3L13.3 18.8L13.8 16.8L13.6 16.6C13 15.7 12.7 14.6 12.7 13.5C12.7 10.3 15.2 7.8 18.4 7.8C19.9 7.8 21.3 8.4 22.4 9.5C23.5 10.6 24 12 24 13.5C24 16.7 21.5 19.2 18.4 19.2Z" fill="white"/>
</svg>